<!--?xml version="1.0" encoding="utf-8"?-->
<!-- Generator: Adobe Illustrator 18.1.1, SVG Export Plug-In . SVG Version: 6.00 Build 0)  -->

<svg version="1.1" id="_x31_0" xmlns="http://www.w3.org/2000/svg" xmlns:xlink="http://www.w3.org/1999/xlink" x="0px" y="0px" viewBox="0 0 512 512" style="width: 16px; height: 16px; opacity: 1;" xml:space="preserve">
<style type="text/css">
	.st0{fill:#374149;}
</style>
<g>
	<path class="st0" d="M342.897,41.731c-19.332-0.035-35.004-3.067-35.004-26.334c0-0.054,0-0.109,0-0.163
		C307.92,6.929,302.736,0,295.851,0h-26.68h-53.022c-6.886,0-12.07,6.929-12.042,15.234c0,0.054,0,0.109,0,0.163
		c0,23.267-15.672,26.299-35.004,26.334H56.647v43.716h398.706V41.731H342.897z" style="fill: rgb(75, 75, 75);"></path>
	<path class="st0" d="M80.388,442.174c0,29.072,40.707,69.826,90.979,69.826h169.266c50.23,0,90.983-40.754,90.983-69.826V114.178
		H80.388V442.174z M233.446,398.419V210.83c0-10.534,8.503-19.041,19.042-19.041c10.495,0,19.045,8.506,19.045,19.041v187.59
		c0,10.538-8.55,19.042-19.045,19.042C241.949,417.461,233.446,408.958,233.446,398.419z M356.84,398.419
		c0,10.538-8.506,19.042-19.041,19.042c-10.496,0-19.042-8.503-19.042-19.042V210.83c0-10.534,8.546-19.041,19.042-19.041
		c10.534,0,19.041,8.506,19.041,19.041V398.419z M193.243,398.419c0,10.538-8.546,19.042-19.042,19.042
		c-10.534,0-19.041-8.503-19.041-19.042V210.83c0-10.534,8.506-19.041,19.041-19.041c10.496,0,19.042,8.506,19.042,19.041V398.419z" style="fill: rgb(75, 75, 75);"></path>
</g>
</svg>
